HIERARCHY
ROOT Hips
{
	OFFSET -32.860001 56.121803 44.745396
	CHANNELS 6 Xposition Yposition Zposition Zrotation Xrotation Yrotation
	JOINT Chest
	{
		OFFSET -0.637402 0.831600 5.390099
		CHANNELS 6 Xposition Yposition Zposition Zrotation Xrotation Yrotation
		JOINT Chest2
		{
			OFFSET 0.000000 0.000000 4.429901
			CHANNELS 6 Xposition Yposition Zposition Zrotation Xrotation Yrotation
			JOINT Neck
			{
				OFFSET 0.000000 0.000000 10.301395
				CHANNELS 6 Xposition Yposition Zposition Zrotation Xrotation Yrotation
				JOINT Head
				{
					OFFSET 0.000000 0.000000 2.173897
					CHANNELS 6 Xposition Yposition Zposition Zrotation Xrotation Yrotation
					End Site
					{
						OFFSET 0.000000 0.000000 8.298004
					}
				}
			}
			JOINT LeftCollar
			{
				OFFSET 2.142401 -0.572701 5.717800
				CHANNELS 6 Xposition Yposition Zposition Zrotation Xrotation Yrotation
				JOINT LeftShoulder
				{
					OFFSET 5.674000 0.000000 0.000000
					CHANNELS 6 Xposition Yposition Zposition Zrotation Xrotation Yrotation
					JOINT LeftElbow
					{
						OFFSET 0.000000 0.000000 -12.238701
						CHANNELS 6 Xposition Yposition Zposition Zrotation Xrotation Yrotation
						JOINT LeftWrist
						{
							OFFSET 0.000000 0.000000 -10.253700
							CHANNELS 6 Xposition Yposition Zposition Zrotation Xrotation Yrotation
							End Site
							{
								OFFSET 0.000000 0.000000 -2.173901
							}
						}
					}
				}
			}
			JOINT RightCollar
			{
				OFFSET -2.882599 -1.580101 6.695801
				CHANNELS 6 Xposition Yposition Zposition Zrotation Xrotation Yrotation
				JOINT RightShoulder
				{
					OFFSET -4.235600 0.000000 0.000000
					CHANNELS 6 Xposition Yposition Zposition Zrotation Xrotation Yrotation
					JOINT RightElbow
					{
						OFFSET 0.000000 0.000000 -10.709900
						CHANNELS 6 Xposition Yposition Zposition Zrotation Xrotation Yrotation
						JOINT RightWrist
						{
							OFFSET 0.000000 0.000000 -11.716801
							CHANNELS 6 Xposition Yposition Zposition Zrotation Xrotation Yrotation
							End Site
							{
								OFFSET 0.000000 0.000000 -2.173901
							}
						}
					}
				}
			}
		}
	}
	JOINT LeftHip
	{
		OFFSET 2.279499 0.210400 -2.475502
		CHANNELS 6 Xposition Yposition Zposition Zrotation Xrotation Yrotation
		JOINT LeftKnee
		{
			OFFSET 0.000000 -0.000004 -20.742800
			CHANNELS 6 Xposition Yposition Zposition Zrotation Xrotation Yrotation
			JOINT LeftAnkle
			{
				OFFSET 0.000000 0.000000 -16.666000
				CHANNELS 6 Xposition Yposition Zposition Zrotation Xrotation Yrotation
				End Site
				{
					OFFSET 0.000000 -8.310898 0.000000
				}
			}
		}
	}
	JOINT RightHip
	{
		OFFSET -1.961899 0.232300 -2.727402
		CHANNELS 6 Xposition Yposition Zposition Zrotation Xrotation Yrotation
		JOINT RightKnee
		{
			OFFSET 0.000000 -0.000004 -20.526800
			CHANNELS 6 Xposition Yposition Zposition Zrotation Xrotation Yrotation
			JOINT RightAnkle
			{
				OFFSET 0.000000 0.000000 -16.867300
				CHANNELS 6 Xposition Yposition Zposition Zrotation Xrotation Yrotation
				End Site
				{
					OFFSET 0.000000 -7.186401 0.000000
				}
			}
		}
	}
}
MOTION
Frames: 6
Frame Time: 0.041667
61.811096 57.786400 22.412796 -221.253296 29.855262 5.311612 -0.637403 0.831598 5.390091 26.123578 40.821875 -18.636381 -0.000008 0.000000 4.429900 -14.242199 -11.253345 -1.909344 -0.000004 -0.000012 10.301393 360.094212 42.767622 -0.132724 -0.000002 0.000005 2.173902 -359.768111 8.789442 1.945208 2.142388 -0.572705 5.717800 -15.128652 10.957314 1.371310 5.673998 -0.000003 -0.000004 164.259465 161.425265 84.270471 -0.000007 0.000004 -12.238701 -118.254494 -161.792879 -143.688766 0.000005 -0.000000 -10.253700 -117.487300 26.102712 -57.848458 -2.882607 -1.580100 6.695796 4.355139 11.411501 -12.690463 -4.235618 0.000009 0.000011 16.803964 12.841118 112.030586 0.000008 0.000003 -10.709896 -33.485218 -33.211433 -36.186069 -0.000003 -0.000009 -11.716803 88.227459 17.218557 57.601560 2.279496 0.210399 -2.475508 113.434566 -41.408698 102.001765 -0.000005 0.000006 -20.742805 -144.542963 -16.462322 149.462926 -0.000003 -0.000004 -16.666008 95.648057 6.246564 53.681182 -1.961891 0.232291 -2.727402 -137.449115 -36.467015 -139.507720 0.000004 -0.000008 -20.526806 145.096140 27.653737 -119.591736 -0.000012 0.000001 -16.867300 -27.032994 19.667427 -13.149791
61.801620 57.781193 22.407892 -221.313292 29.854070 5.345323 -0.637403 0.831595 5.390088 26.180259 40.813976 -18.665631 -0.000009 0.000004 4.429888 -14.227177 -11.256287 -1.906922 0.000002 -0.000016 10.301407 360.032330 42.772595 -0.050720 -0.000009 -0.000003 2.173899 -359.752265 8.791299 1.986553 2.142394 -0.572709 5.717802 -15.153637 10.983835 1.378530 5.674006 -0.000004 0.000008 164.299804 161.380144 84.225549 0.000000 0.000006 -12.238700 -118.142916 -161.843218 -143.685351 0.000011 0.000000 -10.253695 -117.546067 26.059224 -57.842003 -2.882605 -1.580102 6.695804 4.321372 11.386796 -12.757076 -4.235617 -0.000007 0.000011 16.718859 12.845343 112.067196 0.000003 0.000002 -10.709904 -33.465444 -33.163837 -36.171271 -0.000013 0.000007 -11.716808 88.228156 17.258129 57.820905 2.279494 0.210400 -2.475512 113.495819 -41.420429 102.029250 -0.000006 -0.000004 -20.742809 -144.476820 -16.476836 149.477747 -0.000004 0.000007 -16.666000 95.714269 6.246806 53.684771 -1.961906 0.232295 -2.727413 -137.406986 -36.445732 -139.504005 0.000010 -0.000004 -20.526806 145.174346 27.809243 -119.642252 0.000003 -0.000001 -16.867302 -26.886251 19.704788 -13.063557
61.791191 57.775803 22.402988 -221.372646 29.850266 5.374096 -0.637404 0.831590 5.390103 26.232245 40.814612 -18.690910 -0.000008 0.000004 4.429900 -14.214303 -11.262284 -1.905212 -0.000003 -0.000001 10.301382 359.943921 42.773380 0.054155 -0.000016 0.000001 2.173895 -359.728606 8.785288 2.030644 2.142402 -0.572696 5.717780 -15.165962 11.001525 1.387175 5.674006 0.000000 0.000006 164.343217 161.321965 84.177382 0.000007 0.000004 -12.238700 -118.011107 -161.912872 -143.683630 0.000005 0.000001 -10.253693 -117.625652 26.013400 -57.852454 -2.882599 -1.580098 6.695785 4.279791 11.358960 -12.833304 -4.235617 -0.000001 0.000006 16.706016 12.725079 112.124221 0.000006 0.000002 -10.709900 -33.299761 -33.100432 -36.165585 0.000003 -0.000003 -11.716803 88.209175 17.295834 58.045932 2.279507 0.210398 -2.475499 113.552701 -41.426378 102.053183 -0.000003 -0.000008 -20.742817 -144.403955 -16.497236 149.493006 -0.000003 -0.000010 -16.666014 95.789237 6.248121 53.690543 -1.961897 0.232295 -2.727402 -137.365336 -36.434842 -139.504988 -0.000001 -0.000011 -20.526812 145.275555 28.007189 -119.706018 0.000009 -0.000002 -16.867308 -26.704667 19.745266 -12.958614
61.780197 57.770206 22.398289 -221.429856 29.841943 5.397842 -0.637389 0.831596 5.390097 26.280299 40.823887 -18.714363 -0.000003 0.000001 4.429905 -14.205677 -11.270807 -1.904388 -0.000002 -0.000003 10.301390 359.825977 42.771461 0.185741 -0.000005 -0.000000 2.173899 -359.697023 8.771260 2.078671 2.142393 -0.572695 5.717794 -15.166353 11.009742 1.397417 5.674002 -0.000001 0.000002 164.390291 161.254059 84.125172 0.000007 0.000004 -12.238697 -117.856827 -162.004314 -143.680474 -0.000003 0.000010 -10.253700 -117.731438 25.966264 -57.880341 -2.882597 -1.580093 6.695788 4.231769 11.329125 -12.914784 -4.235611 0.000005 0.000013 16.632170 12.736948 112.180960 0.000007 0.000000 -10.709900 -33.261898 -33.067709 -36.138316 -0.000005 -0.000001 -11.716805 88.173023 17.329995 58.273487 2.279505 0.210399 -2.475499 113.602855 -41.427184 102.071351 0.000005 -0.000009 -20.742809 -144.328085 -16.521461 149.508552 -0.000004 -0.000003 -16.666004 95.870304 6.250217 53.697274 -1.961884 0.232296 -2.727400 -137.324382 -36.434568 -139.508745 0.000000 -0.000009 -20.526808 145.396450 28.240746 -119.781328 -0.000003 0.000001 -16.867304 -26.494251 19.788386 -12.838417
61.768806 57.764599 22.393492 -221.484074 29.827945 5.417083 -0.637400 0.831600 5.390098 26.325526 40.841806 -18.737567 0.000004 -0.000005 4.429892 -14.203309 -11.281430 -1.904649 0.000012 -0.000009 10.301400 359.677926 42.767858 0.345778 -0.000000 -0.000001 2.173904 -359.657763 8.749730 2.130872 2.142398 -0.572706 5.717806 -15.155671 11.008453 1.409092 5.674008 -0.000000 -0.000007 164.441367 161.178941 84.068045 0.000008 -0.000008 -12.238696 -117.680102 -162.117682 -143.672893 0.000015 0.000006 -10.253700 -117.864285 25.920336 -57.925783 -2.882599 -1.580100 6.695799 4.179028 11.298532 -12.996148 -4.235616 0.000003 0.000017 16.570742 12.751421 112.239235 -0.000001 -0.000001 -10.709898 -33.219496 -33.036225 -36.104059 0.000003 0.000001 -11.716801 88.127308 17.360616 58.500352 2.279504 0.210406 -2.475500 113.645134 -41.423830 102.082163 -0.000005 -0.000005 -20.742809 -144.253677 -16.547107 149.523988 -0.000003 0.000002 -16.666002 95.953988 6.253036 53.703254 -1.961893 0.232304 -2.727394 -137.283865 -36.444411 -139.513567 -0.000008 -0.000011 -20.526804 145.533149 28.501891 -119.865804 0.000003 0.000008 -16.867306 -26.261352 19.833638 -12.706786
61.756897 57.758896 22.388783 -221.535314 29.807113 5.432783 -0.637396 0.831600 5.390099 26.369759 40.867614 -18.762796 -0.000003 0.000002 4.429902 -14.208809 -11.293614 -1.906212 -0.000007 -0.000014 10.301408 359.500969 42.764077 0.534882 -0.000002 -0.000002 2.173898 -359.611782 8.722003 2.187814 2.142394 -0.572706 5.717808 -15.134816 10.997423 1.422838 5.673993 -0.000005 -0.000000 164.496760 161.098959 84.005548 -0.000005 0.000002 -12.238693 -117.485729 -162.248917 -143.659601 0.000005 -0.000002 -10.253700 -118.017937 25.877917 -57.988176 -2.882605 -1.580100 6.695800 4.124960 11.269360 -13.072758 -4.235617 0.000000 0.000000 16.524570 12.763868 112.295277 0.000008 -0.000003 -10.709906 -33.170319 -33.003413 -36.062729 -0.000010 0.000002 -11.716799 88.073869 17.388342 58.726636 2.279506 0.210406 -2.475502 113.678738 -41.418110 102.084431 0.000001 -0.000004 -20.742798 -144.184651 -16.571021 149.539178 -0.000003 0.000003 -16.666010 96.035991 6.256075 53.706887 -1.961885 0.232302 -2.727411 -137.242843 -36.463006 -139.517269 0.000002 -0.000009 -20.526791 145.681118 28.781000 -119.956714 0.000004 0.000015 -16.867302 -26.013511 19.879943 -12.569061
